<svg xmlns="http://www.w3.org/2000/svg" width="261" height="255" fill="none" viewBox="0 0 261 255"><g clip-path="url(#a)"><path fill="url(#b)" d="M150 87c-27.614 0-50 22.386-50 50s22.386 50 50 50 50-22.386 50-50-22.386-50-50-50"/><path fill="url(#c)" d="M200 0c-27.614 0-50 22.386-50 50s22.386 50 50 50 50-22.386 50-50-22.386-50-50-50"/><path fill="url(#d)" d="M69 205c0-27.614 22.385-50 50-50s50 22.386 50 50-22.386 50-50 50-50-22.386-50-50"/><path fill="url(#e)" d="M50 155c-27.614 0-50 22.386-50 50s22.386 50 50 50 50-22.386 50-50-22.386-50-50-50"/><path fill="url(#f)" d="M211 70c-27.614 0-50 22.386-50 50s22.386 50 50 50 50-22.386 50-50-22.386-50-50-50"/><path fill="url(#g)" d="M161 190c0-27.614 22.385-50 50-50s50 22.385 50 50-22.386 50-50 50-50-22.386-50-50"/></g><defs><radialGradient id="b" cx="0" cy="0" r="1" gradientTransform="rotate(180 75 68.5)scale(49.9999)" gradientUnits="userSpaceOnUse"><stop stop-color="#fff"/><stop offset="1" stop-color="#E4511E"/></radialGradient><radialGradient id="c" cx="0" cy="0" r="1" gradientTransform="rotate(-180 100 25)scale(50.0003)" gradientUnits="userSpaceOnUse"><stop stop-color="#fff"/><stop offset="1" stop-color="#F5B034"/></radialGradient><radialGradient id="d" cx="0" cy="0" r="1" gradientTransform="matrix(-49.9999 0 0 -50.0001 119 205)" gradientUnits="userSpaceOnUse"><stop stop-color="#fff"/><stop offset="1" stop-color="#37A6D9"/></radialGradient><radialGradient id="e" cx="0" cy="0" r="1" gradientTransform="rotate(180 25 102.5)scale(49.9999)" gradientUnits="userSpaceOnUse"><stop stop-color="#fff"/><stop offset="1" stop-color="#803586"/></radialGradient><radialGradient id="f" cx="0" cy="0" r="1" gradientTransform="rotate(180 105.5 60)scale(49.9997)" gradientUnits="userSpaceOnUse"><stop stop-color="#fff"/><stop offset="1" stop-color="#36A662"/></radialGradient><radialGradient id="g" cx="0" cy="0" r="1" gradientTransform="rotate(180 105.5 95)scale(49.9999)" gradientUnits="userSpaceOnUse"><stop stop-color="#fff"/><stop offset="1" stop-color="#DF001A"/></radialGradient><clipPath id="a"><path fill="#fff" d="M0 0h261v255H0z"/></clipPath></defs></svg>