<svg xmlns="http://www.w3.org/2000/svg" width="320" height="103" fill="none" viewBox="0 0 320 103"><g clip-path="url(#a)"><path fill="url(#b)" d="M67.139 66c16.545 0 29.958-13.431 29.958-30 0-16.568-13.413-30-29.958-30C50.592 6 37.18 19.432 37.18 36c0 16.569 13.413 30 29.958 30"/><path fill="url(#c)" d="M17.708 96c16.545 0 29.958-13.431 29.958-30 0-16.568-13.413-30-29.958-30C1.162 36-12.25 49.432-12.25 66c0 16.569 13.412 30 29.958 30"/><path fill="url(#d)" d="M82.85 1c0 16.569-13.412 30-29.957 30S22.935 17.569 22.935 1c0-16.568 13.412-30 29.958-30S82.851-15.568 82.851 1"/><path fill="url(#e)" d="M92.837 28c16.545 0 29.958-13.431 29.958-30 0-16.568-13.413-30-29.958-30C76.29-32 62.879-18.568 62.879-2c0 16.569 13.413 30 29.958 30"/><path fill="url(#f)" d="M116.569 58c16.546 0 29.958-13.431 29.958-30 0-16.568-13.412-30-29.958-30S86.611 11.432 86.611 28c0 16.569 13.413 30 29.958 30"/><path fill="url(#g)" d="M138.773 28c16.545 0 29.958-13.431 29.958-30 0-16.568-13.413-30-29.958-30-16.546 0-29.958 13.432-29.958 30 0 16.569 13.412 30 29.958 30"/><path fill="url(#h)" d="M168.731 58c16.545 0 29.958-13.431 29.958-30 0-16.568-13.413-30-29.958-30-16.546 0-29.958 13.432-29.958 30 0 16.569 13.412 30 29.958 30"/><path fill="url(#i)" d="M208.675 61c16.545 0 29.958-13.431 29.958-30 0-16.568-13.413-30-29.958-30-16.546 0-29.958 13.432-29.958 30 0 16.569 13.412 30 29.958 30"/><path fill="url(#j)" d="M17.458 61c16.545 0 29.958-13.431 29.958-30 0-16.568-13.413-30-29.958-30S-12.5 14.432-12.5 31c0 16.569 13.413 30 29.958 30"/><path fill="url(#k)" d="M48.29-10c0 16.568-13.413 30-29.958 30S-11.626 6.569-11.626-10 1.787-40 18.332-40 48.29-26.568 48.29-10"/><path fill="url(#l)" d="M295.038 24c-16.545 0-29.958-13.431-29.958-30 0-16.568 13.413-30 29.958-30 16.546 0 29.958 13.432 29.958 30 0 16.569-13.412 30-29.958 30"/><path fill="url(#m)" d="M228.647 36c0 16.569 13.412 30 29.958 30s29.958-13.431 29.958-30c0-16.568-13.413-30-29.958-30-16.546 0-29.958 13.432-29.958 30"/><path fill="url(#n)" d="M218.661-2c0 16.569 13.412 30 29.958 30s29.958-13.431 29.958-30c0-16.568-13.413-30-29.958-30-16.546 0-29.958 13.432-29.958 30"/><path fill="url(#o)" d="M263.988 73c0 16.569 13.413 30 29.958 30s29.958-13.431 29.958-30c0-16.568-13.413-30-29.958-30s-29.958 13.432-29.958 30"/><path fill="url(#p)" d="M303.542 66c-16.546 0-29.958-13.431-29.958-30 0-16.568 13.412-30 29.958-30S333.5 19.432 333.5 36c0 16.569-13.413 30-29.958 30"/><path fill="url(#q)" d="M166.733-2c0 16.569 13.413 30 29.958 30 16.546 0 29.959-13.431 29.959-30 0-16.568-13.413-30-29.959-30s-29.958 13.432-29.958 30"/></g><defs><radialGradient id="b" cx="0" cy="0" r="1" gradientTransform="matrix(29.9579 0 0 29.9998 67.138 36)" gradientUnits="userSpaceOnUse"><stop stop-color="#fff"/><stop offset="1" stop-color="#36A662"/></radialGradient><radialGradient id="c" cx="0" cy="0" r="1" gradientTransform="matrix(29.958 0 0 29.9999 17.708 66)" gradientUnits="userSpaceOnUse"><stop stop-color="#fff"/><stop offset="1" stop-color="#DF001A"/></radialGradient><radialGradient id="d" cx="0" cy="0" r="1" gradientTransform="matrix(29.958 0 0 30.0001 52.893 1)" gradientUnits="userSpaceOnUse"><stop stop-color="#fff"/><stop offset="1" stop-color="#37A6D9"/></radialGradient><radialGradient id="e" cx="0" cy="0" r="1" gradientTransform="matrix(29.958 0 0 29.9999 92.837 -2)" gradientUnits="userSpaceOnUse"><stop stop-color="#fff"/><stop offset="1" stop-color="#803586"/></radialGradient><radialGradient id="f" cx="0" cy="0" r="1" gradientTransform="matrix(29.958 0 0 29.9999 116.569 28)" gradientUnits="userSpaceOnUse"><stop stop-color="#fff"/><stop offset="1" stop-color="#DF001A"/></radialGradient><radialGradient id="g" cx="0" cy="0" r="1" gradientTransform="matrix(29.958 0 0 30.0001 138.773 -2)" gradientUnits="userSpaceOnUse"><stop stop-color="#fff"/><stop offset="1" stop-color="#37A6D9"/></radialGradient><radialGradient id="h" cx="0" cy="0" r="1" gradientTransform="matrix(29.9579 0 0 29.9998 168.73 28)" gradientUnits="userSpaceOnUse"><stop stop-color="#fff"/><stop offset="1" stop-color="#36A662"/></radialGradient><radialGradient id="i" cx="0" cy="0" r="1" gradientTransform="matrix(29.958 0 0 29.9999 208.675 31)" gradientUnits="userSpaceOnUse"><stop stop-color="#fff"/><stop offset="1" stop-color="#DF001A"/></radialGradient><radialGradient id="j" cx="0" cy="0" r="1" gradientTransform="matrix(29.958 0 0 29.9999 17.458 31)" gradientUnits="userSpaceOnUse"><stop stop-color="#fff"/><stop offset="1" stop-color="#E4511E"/></radialGradient><radialGradient id="k" cx="0" cy="0" r="1" gradientTransform="matrix(29.9582 0 0 30.0002 18.332 -10)" gradientUnits="userSpaceOnUse"><stop stop-color="#fff"/><stop offset="1" stop-color="#F5B034"/></radialGradient><radialGradient id="l" cx="0" cy="0" r="1" gradientTransform="matrix(0 29.9999 -29.9581 0 295.038 -6)" gradientUnits="userSpaceOnUse"><stop stop-color="#fff"/><stop offset="1" stop-color="#37A6D9"/></radialGradient><radialGradient id="m" cx="0" cy="0" r="1" gradientTransform="matrix(0 29.9998 -29.9579 0 258.605 36)" gradientUnits="userSpaceOnUse"><stop stop-color="#fff"/><stop offset="1" stop-color="#36A662"/></radialGradient><radialGradient id="n" cx="0" cy="0" r="1" gradientTransform="matrix(0 29.9999 -29.958 0 248.619 -2)" gradientUnits="userSpaceOnUse"><stop stop-color="#fff"/><stop offset="1" stop-color="#E4511E"/></radialGradient><radialGradient id="o" cx="0" cy="0" r="1" gradientTransform="matrix(0 30.0002 -29.9582 0 293.946 73)" gradientUnits="userSpaceOnUse"><stop stop-color="#fff"/><stop offset="1" stop-color="#F5B034"/></radialGradient><radialGradient id="p" cx="0" cy="0" r="1" gradientTransform="matrix(0 29.9999 -29.958 0 303.542 36)" gradientUnits="userSpaceOnUse"><stop stop-color="#fff"/><stop offset="1" stop-color="#803586"/></radialGradient><radialGradient id="q" cx="0" cy="0" r="1" gradientTransform="matrix(0 30.0002 -29.9582 0 196.692 -2)" gradientUnits="userSpaceOnUse"><stop stop-color="#fff"/><stop offset="1" stop-color="#F5B034"/></radialGradient><clipPath id="a"><path fill="#fff" d="M0 0h320v103H0z"/></clipPath></defs></svg>