<svg xmlns="http://www.w3.org/2000/svg" width="97" height="110" fill="none" viewBox="0 0 97 110"><g clip-path="url(#a)"><path fill="url(#b)" d="M20 70C8.954 70 0 78.954 0 90s8.954 20 20 20 20-8.954 20-20-8.954-20-20-20"/><path fill="url(#c)" d="M33 90c0-11.046 8.954-20 20-20s20 8.954 20 20-8.954 20-20 20-20-8.954-20-20"/><path fill="url(#d)" d="M60 80c0-11.046 8.954-20 20-20s20 8.954 20 20-8.954 20-20 20-20-8.954-20-20"/><path fill="url(#e)" d="M85 30c-11.046 0-20 8.954-20 20s8.954 20 20 20 20-8.954 20-20-8.954-20-20-20"/><path fill="url(#f)" d="M85 0C73.954 0 65 8.954 65 20s8.954 20 20 20 20-8.954 20-20S96.046 0 85 0"/><path fill="url(#g)" d="M53 43c-11.046 0-20 8.954-20 20s8.954 20 20 20 20-8.954 20-20-8.954-20-20-20"/></g><defs><radialGradient id="b" cx="0" cy="0" r="1" gradientTransform="matrix(-20 0 0 -20 20 90)" gradientUnits="userSpaceOnUse"><stop stop-color="#fff"/><stop offset="1" stop-color="#803586"/></radialGradient><radialGradient id="c" cx="0" cy="0" r="1" gradientTransform="matrix(-19.9999 0 0 -20 53 90)" gradientUnits="userSpaceOnUse"><stop stop-color="#fff"/><stop offset="1" stop-color="#37A6D9"/></radialGradient><radialGradient id="d" cx="0" cy="0" r="1" gradientTransform="matrix(-20 0 0 -20 80 80)" gradientUnits="userSpaceOnUse"><stop stop-color="#fff"/><stop offset="1" stop-color="#DF001A"/></radialGradient><radialGradient id="e" cx="0" cy="0" r="1" gradientTransform="matrix(-20 0 0 -20 85 50)" gradientUnits="userSpaceOnUse"><stop stop-color="#fff"/><stop offset="1" stop-color="#E4511E"/></radialGradient><radialGradient id="f" cx="0" cy="0" r="1" gradientTransform="rotate(180 42.5 10)scale(19.9999)" gradientUnits="userSpaceOnUse"><stop stop-color="#fff"/><stop offset="1" stop-color="#36A662"/></radialGradient><radialGradient id="g" cx="0" cy="0" r="1" gradientTransform="rotate(180 26.5 31.5)scale(20.0001)" gradientUnits="userSpaceOnUse"><stop stop-color="#fff"/><stop offset="1" stop-color="#F5B034"/></radialGradient><clipPath id="a"><path fill="#fff" d="M0 0h97v110H0z"/></clipPath></defs></svg>