<svg xmlns="http://www.w3.org/2000/svg" width="99" height="110" fill="none" viewBox="0 0 99 110"><g clip-path="url(#a)"><path fill="url(#b)" d="M79 40c11.046 0 20-8.954 20-20S90.046 0 79 0 59 8.954 59 20s8.954 20 20 20"/><path fill="url(#c)" d="M66 20c0 11.046-8.954 20-20 20s-20-8.954-20-20S34.954 0 46 0s20 8.954 20 20"/><path fill="url(#d)" d="M39 30c0 11.046-8.954 20-20 20S-1 41.046-1 30s8.954-20 20-20 20 8.954 20 20"/><path fill="url(#e)" d="M14 80c11.046 0 20-8.954 20-20s-8.954-20-20-20-20 8.954-20 20 8.954 20 20 20"/><path fill="url(#f)" d="M14 110c11.046 0 20-8.954 20-20s-8.954-20-20-20-20 8.954-20 20 8.954 20 20 20"/><path fill="url(#g)" d="M46 67c11.046 0 20-8.954 20-20s-8.954-20-20-20-20 8.954-20 20 8.954 20 20 20"/></g><defs><radialGradient id="b" cx="0" cy="0" r="1" gradientTransform="matrix(20 0 0 20 79 20)" gradientUnits="userSpaceOnUse"><stop stop-color="#fff"/><stop offset="1" stop-color="#803586"/></radialGradient><radialGradient id="c" cx="0" cy="0" r="1" gradientTransform="matrix(19.9999 0 0 20 46 20)" gradientUnits="userSpaceOnUse"><stop stop-color="#fff"/><stop offset="1" stop-color="#37A6D9"/></radialGradient><radialGradient id="d" cx="0" cy="0" r="1" gradientTransform="matrix(20 0 0 20 19 30)" gradientUnits="userSpaceOnUse"><stop stop-color="#fff"/><stop offset="1" stop-color="#DF001A"/></radialGradient><radialGradient id="e" cx="0" cy="0" r="1" gradientTransform="matrix(20 0 0 20 14 60)" gradientUnits="userSpaceOnUse"><stop stop-color="#fff"/><stop offset="1" stop-color="#E4511E"/></radialGradient><radialGradient id="f" cx="0" cy="0" r="1" gradientTransform="translate(14 90)scale(19.9999)" gradientUnits="userSpaceOnUse"><stop stop-color="#fff"/><stop offset="1" stop-color="#36A662"/></radialGradient><radialGradient id="g" cx="0" cy="0" r="1" gradientTransform="translate(46 47)scale(20.0001)" gradientUnits="userSpaceOnUse"><stop stop-color="#fff"/><stop offset="1" stop-color="#F5B034"/></radialGradient><clipPath id="a"><path fill="#fff" d="M0 0h99v110H0z"/></clipPath></defs></svg>