<svg xmlns="http://www.w3.org/2000/svg" width="1440" height="288" fill="none" viewBox="0 0 1440 288"><g clip-path="url(#a)"><path fill="url(#b)" d="M85 191c33.137 0 60-26.863 60-60s-26.863-60-60-60-60 26.863-60 60 26.863 60 60 60"/><path fill="url(#c)" d="M882 100c33.137 0 60-26.863 60-60s-26.863-60-60-60-60 26.863-60 60 26.863 60 60 60"/><path fill="url(#d)" d="M313 90c33.137 0 60-26.863 60-60s-26.863-60-60-60-60 26.863-60 60 26.863 60 60 60"/><path fill="url(#e)" d="M17 288c33.137 0 60-26.863 60-60s-26.863-60-60-60-60 26.863-60 60 26.863 60 60 60"/><path fill="url(#f)" d="M610 93c33.137 0 60-26.863 60-60s-26.863-60-60-60-60 26.863-60 60 26.863 60 60 60"/><path fill="url(#g)" d="M173 31c0 33.137-26.862 60-59.999 60S53 64.137 53 31s26.863-60 60.001-60S173-2.137 173 31"/><path fill="url(#h)" d="M1129 31c0 33.137-26.86 60-60 60s-60-26.863-60-60 26.86-60 60-60 60 26.863 60 60"/><path fill="url(#i)" d="M570 31c0 33.137-26.862 60-59.999 60S450 64.137 450 31s26.863-60 60.001-60S570-2.137 570 31"/><path fill="url(#j)" d="M208 85c33.137 0 60-26.863 60-60s-26.863-60-60-60-60 26.863-60 60 26.863 60 60 60"/><path fill="url(#k)" d="M974 90c33.14 0 60-26.863 60-60s-26.86-60-60-60c-33.137 0-60 26.863-60 60s26.863 60 60 60"/><path fill="url(#l)" d="M17 203c33.137 0 60-26.863 60-60S50.137 83 17 83s-60 26.863-60 60 26.863 60 60 60"/><path fill="url(#m)" d="M1146 93c33.14 0 60-26.863 60-60s-26.86-60-60-60-60 26.863-60 60 26.86 60 60 60"/><path fill="url(#n)" d="M701 100c33.137 0 60-26.863 60-60s-26.863-60-60-60-60 26.863-60 60 26.863 60 60 60"/><path fill="url(#o)" d="M84 33c0 33.137-26.862 60-60 60-33.137 0-60-26.862-60-60s26.863-60 60-60S84-.137 84 33"/><path fill="url(#p)" d="M852 40c0 33.137-26.862 60-59.999 60S732 73.138 732 40s26.863-60 60.001-60S852 6.863 852 40"/><path fill="url(#q)" d="M470 33c0 33.137-26.862 60-59.999 60S350 66.138 350 33s26.863-60 60.001-60S470-.137 470 33"/><path fill="url(#r)" d="M1275 109c0 33.137 26.86 60 60 60s60-26.863 60-60-26.86-60-60-60-60 26.863-60 60"/><path fill="url(#s)" d="M1155 30c0 33.137 26.86 60 60 60s60-26.863 60-60-26.86-60-60-60-60 26.863-60 60"/><path fill="url(#t)" d="M1410 190c-33.14 0-60-26.862-60-59.999S1376.86 70 1410 70s60 26.863 60 60.001S1443.14 190 1410 190"/><path fill="url(#u)" d="M1356 217c0 33.137 26.86 60 60 60s60-26.863 60-60-26.86-60-60-60-60 26.863-60 60"/><path fill="url(#v)" d="M1240 23c0 33.137 26.86 60 60 60s60-26.863 60-60-26.86-60-60-60-60 26.863-60 60"/><path fill="url(#w)" d="M1410 90c-33.14 0-60-26.862-60-60 0-33.137 26.86-60 60-60s60 26.863 60 60-26.86 60-60 60"/></g><defs><radialGradient id="b" cx="0" cy="0" r="1" gradientTransform="translate(85 131)scale(59.9996)" gradientUnits="userSpaceOnUse"><stop stop-color="#fff"/><stop offset="1" stop-color="#36A662"/></radialGradient><radialGradient id="c" cx="0" cy="0" r="1" gradientTransform="translate(882 40)scale(59.9996)" gradientUnits="userSpaceOnUse"><stop stop-color="#fff"/><stop offset="1" stop-color="#36A662"/></radialGradient><radialGradient id="d" cx="0" cy="0" r="1" gradientTransform="translate(313 30)scale(59.9996)" gradientUnits="userSpaceOnUse"><stop stop-color="#fff"/><stop offset="1" stop-color="#36A662"/></radialGradient><radialGradient id="e" cx="0" cy="0" r="1" gradientTransform="translate(17 228)scale(60.0004)" gradientUnits="userSpaceOnUse"><stop stop-color="#fff"/><stop offset="1" stop-color="#F5B034"/></radialGradient><radialGradient id="f" cx="0" cy="0" r="1" gradientTransform="translate(610 33)scale(60.0004)" gradientUnits="userSpaceOnUse"><stop stop-color="#fff"/><stop offset="1" stop-color="#F5B034"/></radialGradient><radialGradient id="g" cx="0" cy="0" r="1" gradientTransform="matrix(59.9998 0 0 60.0001 113 31)" gradientUnits="userSpaceOnUse"><stop stop-color="#fff"/><stop offset="1" stop-color="#37A6D9"/></radialGradient><radialGradient id="h" cx="0" cy="0" r="1" gradientTransform="matrix(59.9998 0 0 60.0001 1069 31)" gradientUnits="userSpaceOnUse"><stop stop-color="#fff"/><stop offset="1" stop-color="#37A6D9"/></radialGradient><radialGradient id="i" cx="0" cy="0" r="1" gradientTransform="matrix(59.9998 0 0 60.0001 510 31)" gradientUnits="userSpaceOnUse"><stop stop-color="#fff"/><stop offset="1" stop-color="#37A6D9"/></radialGradient><radialGradient id="j" cx="0" cy="0" r="1" gradientTransform="translate(208 25)scale(59.9999)" gradientUnits="userSpaceOnUse"><stop stop-color="#fff"/><stop offset="1" stop-color="#803586"/></radialGradient><radialGradient id="k" cx="0" cy="0" r="1" gradientTransform="translate(974 30)scale(59.9999)" gradientUnits="userSpaceOnUse"><stop stop-color="#fff"/><stop offset="1" stop-color="#803586"/></radialGradient><radialGradient id="l" cx="0" cy="0" r="1" gradientTransform="translate(17 143)scale(59.9999)" gradientUnits="userSpaceOnUse"><stop stop-color="#fff"/><stop offset="1" stop-color="#DF001A"/></radialGradient><radialGradient id="m" cx="0" cy="0" r="1" gradientTransform="translate(1146 33)scale(59.9999)" gradientUnits="userSpaceOnUse"><stop stop-color="#fff"/><stop offset="1" stop-color="#DF001A"/></radialGradient><radialGradient id="n" cx="0" cy="0" r="1" gradientTransform="translate(701 40)scale(59.9999)" gradientUnits="userSpaceOnUse"><stop stop-color="#fff"/><stop offset="1" stop-color="#DF001A"/></radialGradient><radialGradient id="o" cx="0" cy="0" r="1" gradientTransform="translate(24 33)scale(59.9999)" gradientUnits="userSpaceOnUse"><stop stop-color="#fff"/><stop offset="1" stop-color="#E4511E"/></radialGradient><radialGradient id="p" cx="0" cy="0" r="1" gradientTransform="translate(792 40)scale(59.9999)" gradientUnits="userSpaceOnUse"><stop stop-color="#fff"/><stop offset="1" stop-color="#E4511E"/></radialGradient><radialGradient id="q" cx="0" cy="0" r="1" gradientTransform="translate(410 33)scale(59.9999)" gradientUnits="userSpaceOnUse"><stop stop-color="#fff"/><stop offset="1" stop-color="#E4511E"/></radialGradient><radialGradient id="r" cx="0" cy="0" r="1" gradientTransform="rotate(90 613 722)scale(59.9996)" gradientUnits="userSpaceOnUse"><stop stop-color="#fff"/><stop offset="1" stop-color="#36A662"/></radialGradient><radialGradient id="s" cx="0" cy="0" r="1" gradientTransform="rotate(90 592.5 622.5)scale(60.0004)" gradientUnits="userSpaceOnUse"><stop stop-color="#fff"/><stop offset="1" stop-color="#F5B034"/></radialGradient><radialGradient id="t" cx="0" cy="0" r="1" gradientTransform="matrix(0 59.9998 -60.0001 0 1410 130)" gradientUnits="userSpaceOnUse"><stop stop-color="#fff"/><stop offset="1" stop-color="#37A6D9"/></radialGradient><radialGradient id="u" cx="0" cy="0" r="1" gradientTransform="rotate(90 599.5 816.5)scale(59.9999)" gradientUnits="userSpaceOnUse"><stop stop-color="#fff"/><stop offset="1" stop-color="#803586"/></radialGradient><radialGradient id="v" cx="0" cy="0" r="1" gradientTransform="rotate(90 638.5 661.5)scale(59.9999)" gradientUnits="userSpaceOnUse"><stop stop-color="#fff"/><stop offset="1" stop-color="#DF001A"/></radialGradient><radialGradient id="w" cx="0" cy="0" r="1" gradientTransform="rotate(90 690 720)scale(59.9999)" gradientUnits="userSpaceOnUse"><stop stop-color="#fff"/><stop offset="1" stop-color="#E4511E"/></radialGradient><clipPath id="a"><path fill="#fff" d="M0 0h1440v288H0z"/></clipPath></defs></svg>