<svg xmlns="http://www.w3.org/2000/svg" width="261" height="255" fill="none" viewBox="0 0 261 255"><g clip-path="url(#a)"><path fill="url(#b)" d="M111 168c27.614 0 50-22.386 50-50s-22.386-50-50-50-50 22.386-50 50 22.386 50 50 50"/><path fill="url(#c)" d="M61 255c27.614 0 50-22.386 50-50s-22.386-50-50-50-50 22.386-50 50 22.386 50 50 50"/><path fill="url(#d)" d="M192 50c0 27.615-22.385 50-50 50S92 77.615 92 50s22.386-50 50-50 50 22.386 50 50"/><path fill="url(#e)" d="M211 100c27.614 0 50-22.386 50-50S238.614 0 211 0s-50 22.386-50 50 22.386 50 50 50"/><path fill="url(#f)" d="M50 185c27.614 0 50-22.386 50-50S77.614 85 50 85 0 107.386 0 135s22.386 50 50 50"/><path fill="url(#g)" d="M100 65c0 27.614-22.385 50-50 50S0 92.615 0 65s22.386-50 50-50 50 22.386 50 50"/></g><defs><radialGradient id="b" cx="0" cy="0" r="1" gradientTransform="translate(111 118)scale(50.0003)" gradientUnits="userSpaceOnUse"><stop stop-color="#fff"/><stop offset="1" stop-color="#F5B034"/></radialGradient><radialGradient id="c" cx="0" cy="0" r="1" gradientTransform="translate(61 205)scale(49.9999)" gradientUnits="userSpaceOnUse"><stop stop-color="#fff"/><stop offset="1" stop-color="#803586"/></radialGradient><radialGradient id="d" cx="0" cy="0" r="1" gradientTransform="translate(142 50)scale(49.9999)" gradientUnits="userSpaceOnUse"><stop stop-color="#fff"/><stop offset="1" stop-color="#E4511E"/></radialGradient><radialGradient id="e" cx="0" cy="0" r="1" gradientTransform="translate(211 50)scale(49.9999)" gradientUnits="userSpaceOnUse"><stop stop-color="#fff"/><stop offset="1" stop-color="#DF001A"/></radialGradient><radialGradient id="f" cx="0" cy="0" r="1" gradientTransform="translate(50 135)scale(49.9997)" gradientUnits="userSpaceOnUse"><stop stop-color="#fff"/><stop offset="1" stop-color="#36A662"/></radialGradient><radialGradient id="g" cx="0" cy="0" r="1" gradientTransform="matrix(49.9999 0 0 50.0001 50 65)" gradientUnits="userSpaceOnUse"><stop stop-color="#fff"/><stop offset="1" stop-color="#37A6D9"/></radialGradient><clipPath id="a"><path fill="#fff" d="M0 0h261v255H0z"/></clipPath></defs></svg>